<svg width="28" height="29" viewBox="0 0 28 29" fill="none" xmlns="http://www.w3.org/2000/svg">
<path d="M8.75 7.5C8.75 7.26794 8.84219 7.04538 9.00628 6.88128C9.17038 6.71719 9.39294 6.625 9.625 6.625H23.625C23.8571 6.625 24.0796 6.71719 24.2437 6.88128C24.4078 7.04538 24.5 7.26794 24.5 7.5C24.5 7.73206 24.4078 7.95462 24.2437 8.11872C24.0796 8.28281 23.8571 8.375 23.625 8.375H9.625C9.39294 8.375 9.17038 8.28281 9.00628 8.11872C8.84219 7.95462 8.75 7.73206 8.75 7.5ZM23.625 13.625H9.625C9.39294 13.625 9.17038 13.7172 9.00628 13.8813C8.84219 14.0454 8.75 14.2679 8.75 14.5C8.75 14.7321 8.84219 14.9546 9.00628 15.1187C9.17038 15.2828 9.39294 15.375 9.625 15.375H23.625C23.8571 15.375 24.0796 15.2828 24.2437 15.1187C24.4078 14.9546 24.5 14.7321 24.5 14.5C24.5 14.2679 24.4078 14.0454 24.2437 13.8813C24.0796 13.7172 23.8571 13.625 23.625 13.625ZM23.625 20.625H9.625C9.39294 20.625 9.17038 20.7172 9.00628 20.8813C8.84219 21.0454 8.75 21.2679 8.75 21.5C8.75 21.7321 8.84219 21.9546 9.00628 22.1187C9.17038 22.2828 9.39294 22.375 9.625 22.375H23.625C23.8571 22.375 24.0796 22.2828 24.2437 22.1187C24.4078 21.9546 24.5 21.7321 24.5 21.5C24.5 21.2679 24.4078 21.0454 24.2437 20.8813C24.0796 20.7172 23.8571 20.625 23.625 20.625ZM4.8125 6.1875C4.55291 6.1875 4.29915 6.26448 4.08331 6.4087C3.86748 6.55292 3.69925 6.7579 3.59991 6.99773C3.50057 7.23756 3.47458 7.50146 3.52522 7.75606C3.57586 8.01066 3.70087 8.24452 3.88442 8.42808C4.06798 8.61163 4.30184 8.73664 4.55644 8.78728C4.81104 8.83792 5.07494 8.81193 5.31477 8.71259C5.5546 8.61325 5.75959 8.44503 5.9038 8.22919C6.04802 8.01335 6.125 7.75959 6.125 7.5C6.125 7.1519 5.98672 6.81806 5.74058 6.57192C5.49444 6.32578 5.1606 6.1875 4.8125 6.1875ZM4.8125 13.1875C4.55291 13.1875 4.29915 13.2645 4.08331 13.4087C3.86748 13.5529 3.69925 13.7579 3.59991 13.9977C3.50057 14.2376 3.47458 14.5015 3.52522 14.7561C3.57586 15.0107 3.70087 15.2445 3.88442 15.4281C4.06798 15.6116 4.30184 15.7366 4.55644 15.7873C4.81104 15.8379 5.07494 15.8119 5.31477 15.7126C5.5546 15.6133 5.75959 15.445 5.9038 15.2292C6.04802 15.0133 6.125 14.7596 6.125 14.5C6.125 14.1519 5.98672 13.8181 5.74058 13.5719C5.49444 13.3258 5.1606 13.1875 4.8125 13.1875ZM4.8125 20.1875C4.55291 20.1875 4.29915 20.2645 4.08331 20.4087C3.86748 20.5529 3.69925 20.7579 3.59991 20.9977C3.50057 21.2376 3.47458 21.5015 3.52522 21.7561C3.57586 22.0107 3.70087 22.2445 3.88442 22.4281C4.06798 22.6116 4.30184 22.7366 4.55644 22.7873C4.81104 22.8379 5.07494 22.8119 5.31477 22.7126C5.5546 22.6133 5.75959 22.445 5.9038 22.2292C6.04802 22.0133 6.125 21.7596 6.125 21.5C6.125 21.1519 5.98672 20.8181 5.74058 20.5719C5.49444 20.3258 5.1606 20.1875 4.8125 20.1875Z" fill="#AB5D0A"/>
</svg>
