<svg width="28" height="29" viewBox="0 0 28 29" fill="none" xmlns="http://www.w3.org/2000/svg">
<path d="M23.987 12.3869L15.237 3.63687C14.9089 3.30893 14.4639 3.12471 14 3.12471C13.5361 3.12471 13.0911 3.30893 12.763 3.63687L4.01296 12.3869C3.84967 12.5489 3.72023 12.7419 3.63217 12.9544C3.54411 13.167 3.49918 13.3949 3.5 13.625V24.125C3.5 24.3571 3.59218 24.5796 3.75628 24.7437C3.92037 24.9078 4.14293 25 4.375 25H11.375C11.6071 25 11.8296 24.9078 11.9937 24.7437C12.1578 24.5796 12.25 24.3571 12.25 24.125V18H15.75V24.125C15.75 24.3571 15.8422 24.5796 16.0063 24.7437C16.1704 24.9078 16.3929 25 16.625 25H23.625C23.8571 25 24.0796 24.9078 24.2437 24.7437C24.4078 24.5796 24.5 24.3571 24.5 24.125V13.625C24.5008 13.3949 24.4559 13.167 24.3678 12.9544C24.2798 12.7419 24.1503 12.5489 23.987 12.3869ZM22.75 23.25H17.5V17.125C17.5 16.8929 17.4078 16.6704 17.2437 16.5063C17.0796 16.3422 16.8571 16.25 16.625 16.25H11.375C11.1429 16.25 10.9204 16.3422 10.7563 16.5063C10.5922 16.6704 10.5 16.8929 10.5 17.125V23.25H5.25V13.625L14 4.87499L22.75 13.625V23.25Z" fill="#595959"/>
</svg>
