<svg width="28" height="29" viewBox="0 0 28 29" fill="none" xmlns="http://www.w3.org/2000/svg">
<path d="M23.3691 9.50594L17.2441 3.38094C17.1627 3.29971 17.0662 3.2353 16.96 3.19138C16.8538 3.14747 16.7399 3.12491 16.625 3.125H6.125C5.66087 3.125 5.21575 3.30937 4.88756 3.63756C4.55937 3.96575 4.375 4.41087 4.375 4.875V24.125C4.375 24.5891 4.55937 25.0342 4.88756 25.3624C5.21575 25.6906 5.66087 25.875 6.125 25.875H21.875C22.3391 25.875 22.7842 25.6906 23.1124 25.3624C23.4406 25.0342 23.625 24.5891 23.625 24.125V10.125C23.6251 10.0101 23.6025 9.89623 23.5586 9.79001C23.5147 9.68379 23.4503 9.58726 23.3691 9.50594ZM17.5 6.11203L20.638 9.25H17.5V6.11203ZM21.875 24.125H6.125V4.875H15.75V10.125C15.75 10.3571 15.8422 10.5796 16.0063 10.7437C16.1704 10.9078 16.3929 11 16.625 11H21.875V24.125Z" fill="#595959"/>
</svg>
