<svg width="28" height="29" viewBox="0 0 28 29" fill="none" xmlns="http://www.w3.org/2000/svg">
<path d="M18.375 12.75C18.375 12.9821 18.2828 13.2046 18.1187 13.3687C17.9546 13.5328 17.7321 13.625 17.5 13.625H10.5C10.2679 13.625 10.0454 13.5328 9.88128 13.3687C9.71719 13.2046 9.625 12.9821 9.625 12.75C9.625 12.5179 9.71719 12.2954 9.88128 12.1313C10.0454 11.9672 10.2679 11.875 10.5 11.875H17.5C17.7321 11.875 17.9546 11.9672 18.1187 12.1313C18.2828 12.2954 18.375 12.5179 18.375 12.75ZM17.5 15.375H10.5C10.2679 15.375 10.0454 15.4672 9.88128 15.6313C9.71719 15.7954 9.625 16.0179 9.625 16.25C9.625 16.4821 9.71719 16.7046 9.88128 16.8687C10.0454 17.0328 10.2679 17.125 10.5 17.125H17.5C17.7321 17.125 17.9546 17.0328 18.1187 16.8687C18.2828 16.7046 18.375 16.4821 18.375 16.25C18.375 16.0179 18.2828 15.7954 18.1187 15.6313C17.9546 15.4672 17.7321 15.375 17.5 15.375ZM25.375 14.5C25.3754 16.4639 24.8674 18.3944 23.9004 20.1037C22.9333 21.8129 21.5403 23.2427 19.8567 24.2539C18.1732 25.265 16.2565 25.8231 14.2933 25.8737C12.3301 25.9243 10.3872 25.4658 8.65375 24.5428L4.92953 25.7842C4.62119 25.8871 4.2903 25.902 3.97395 25.8273C3.6576 25.7527 3.3683 25.5914 3.13846 25.3615C2.90863 25.1317 2.74734 24.8424 2.67268 24.5261C2.59803 24.2097 2.61295 23.8788 2.71578 23.5705L3.95719 19.8463C3.14579 18.3207 2.69259 16.6304 2.632 14.9036C2.5714 13.1767 2.90501 11.4588 3.60748 9.88015C4.30996 8.3015 5.36284 6.90363 6.68622 5.79265C8.0096 4.68167 9.56869 3.88678 11.2451 3.4683C12.9216 3.04983 14.6713 3.01879 16.3616 3.37752C18.0518 3.73625 19.6381 4.47533 21.0001 5.53866C22.3621 6.60199 23.4639 7.96162 24.2219 9.51436C24.9799 11.0671 25.3743 12.7721 25.375 14.5ZM23.625 14.5C23.6246 13.0236 23.2845 11.567 22.6311 10.2431C21.9777 8.9191 21.0285 7.7632 19.8568 6.86479C18.6852 5.96638 17.3226 5.34955 15.8744 5.06202C14.4263 4.77449 12.9314 4.82397 11.5054 5.20663C10.0794 5.58928 8.7606 6.29486 7.65095 7.26878C6.54129 8.24269 5.67057 9.45883 5.10613 10.8231C4.54169 12.1874 4.29868 13.6632 4.39588 15.1364C4.49309 16.6097 4.92792 18.0408 5.66672 19.3191C5.72873 19.4264 5.76723 19.5456 5.77967 19.669C5.79212 19.7923 5.77822 19.9168 5.73891 20.0344L4.375 24.125L8.46562 22.7611C8.55472 22.7307 8.64821 22.7152 8.74234 22.7152C8.89602 22.7154 9.04691 22.7562 9.17984 22.8333C10.6431 23.6799 12.3034 24.1261 13.9939 24.1272C15.6844 24.1283 17.3453 23.6841 18.8096 22.8394C20.2739 21.9946 21.4899 20.7791 22.3352 19.3152C23.1805 17.8512 23.6254 16.1905 23.625 14.5Z" fill="#595959"/>
</svg>
