<svg width="28" height="29" viewBox="0 0 28 29" fill="none" xmlns="http://www.w3.org/2000/svg">
<path d="M24.5 5.75H3.5C3.26794 5.75 3.04538 5.84219 2.88128 6.00628C2.71719 6.17038 2.625 6.39294 2.625 6.625V21.5C2.625 21.9641 2.80937 22.4092 3.13756 22.7374C3.46575 23.0656 3.91087 23.25 4.375 23.25H23.625C24.0891 23.25 24.5342 23.0656 24.8624 22.7374C25.1906 22.4092 25.375 21.9641 25.375 21.5V6.625C25.375 6.39294 25.2828 6.17038 25.1187 6.00628C24.9546 5.84219 24.7321 5.75 24.5 5.75ZM4.375 12.75H8.75V16.25H4.375V12.75ZM10.5 12.75H23.625V16.25H10.5V12.75ZM23.625 7.5V11H4.375V7.5H23.625ZM4.375 18H8.75V21.5H4.375V18ZM23.625 21.5H10.5V18H23.625V21.5Z" fill="#595959"/>
</svg>
