<svg width="18" height="19" viewBox="0 0 18 19" fill="none" xmlns="http://www.w3.org/2000/svg">
<path d="M9.84375 9.5C9.84375 9.66688 9.79427 9.83001 9.70155 9.96876C9.60884 10.1075 9.47706 10.2157 9.32289 10.2795C9.16871 10.3434 8.99906 10.3601 8.83539 10.3275C8.67172 10.295 8.52138 10.2146 8.40338 10.0966C8.28538 9.97862 8.20502 9.82828 8.17246 9.66461C8.13991 9.50094 8.15662 9.33129 8.22048 9.17711C8.28434 9.02294 8.39248 8.89116 8.53124 8.79845C8.66999 8.70573 8.83312 8.65625 9 8.65625C9.22378 8.65625 9.43839 8.74514 9.59662 8.90338C9.75486 9.06161 9.84375 9.27622 9.84375 9.5ZM13.7812 8.65625C13.6144 8.65625 13.4512 8.70573 13.3125 8.79845C13.1737 8.89116 13.0656 9.02294 13.0017 9.17711C12.9379 9.33129 12.9212 9.50094 12.9537 9.66461C12.9863 9.82828 13.0666 9.97862 13.1846 10.0966C13.3026 10.2146 13.453 10.295 13.6166 10.3275C13.7803 10.3601 13.95 10.3434 14.1041 10.2795C14.2583 10.2157 14.3901 10.1075 14.4828 9.96876C14.5755 9.83001 14.625 9.66688 14.625 9.5C14.625 9.27622 14.5361 9.06161 14.3779 8.90338C14.2196 8.74514 14.005 8.65625 13.7812 8.65625ZM4.21875 8.65625C4.05187 8.65625 3.88874 8.70573 3.74999 8.79845C3.61123 8.89116 3.50309 9.02294 3.43923 9.17711C3.37537 9.33129 3.35866 9.50094 3.39121 9.66461C3.42377 9.82828 3.50413 9.97862 3.62213 10.0966C3.74013 10.2146 3.89047 10.295 4.05414 10.3275C4.21781 10.3601 4.38746 10.3434 4.54164 10.2795C4.69581 10.2157 4.82759 10.1075 4.9203 9.96876C5.01302 9.83001 5.0625 9.66688 5.0625 9.5C5.0625 9.27622 4.97361 9.06161 4.81537 8.90338C4.65714 8.74514 4.44253 8.65625 4.21875 8.65625Z" fill="#333333"/>
</svg>
