<svg width="18" height="18" viewBox="0 0 18 18" fill="none" xmlns="http://www.w3.org/2000/svg">
<path d="M14.0625 9C14.0625 9.14918 14.0032 9.29226 13.8977 9.39775C13.7923 9.50324 13.6492 9.5625 13.5 9.5625H4.5C4.35082 9.5625 4.20774 9.50324 4.10225 9.39775C3.99676 9.29226 3.9375 9.14918 3.9375 9C3.9375 8.85082 3.99676 8.70774 4.10225 8.60225C4.20774 8.49676 4.35082 8.4375 4.5 8.4375H13.5C13.6492 8.4375 13.7923 8.49676 13.8977 8.60225C14.0032 8.70774 14.0625 8.85082 14.0625 9ZM16.3125 5.0625H1.6875C1.53832 5.0625 1.39524 5.12176 1.28975 5.22725C1.18426 5.33274 1.125 5.47582 1.125 5.625C1.125 5.77418 1.18426 5.91726 1.28975 6.02275C1.39524 6.12824 1.53832 6.1875 1.6875 6.1875H16.3125C16.4617 6.1875 16.6048 6.12824 16.7102 6.02275C16.8157 5.91726 16.875 5.77418 16.875 5.625C16.875 5.47582 16.8157 5.33274 16.7102 5.22725C16.6048 5.12176 16.4617 5.0625 16.3125 5.0625ZM10.6875 11.8125H7.3125C7.16332 11.8125 7.02024 11.8718 6.91475 11.9773C6.80926 12.0827 6.75 12.2258 6.75 12.375C6.75 12.5242 6.80926 12.6673 6.91475 12.7727C7.02024 12.8782 7.16332 12.9375 7.3125 12.9375H10.6875C10.8367 12.9375 10.9798 12.8782 11.0852 12.7727C11.1907 12.6673 11.25 12.5242 11.25 12.375C11.25 12.2258 11.1907 12.0827 11.0852 11.9773C10.9798 11.8718 10.8367 11.8125 10.6875 11.8125Z" fill="black"/>
</svg>
