<svg width="24" height="25" viewBox="0 0 24 25" fill="none" xmlns="http://www.w3.org/2000/svg">
<path d="M20.2125 14.075C20.1534 14.1193 20.0862 14.1516 20.0146 14.1699C19.943 14.1882 19.8686 14.1923 19.7955 14.1818C19.7223 14.1714 19.652 14.1467 19.5884 14.109C19.5248 14.0714 19.4693 14.0216 19.425 13.9625C19.086 13.5068 18.6447 13.137 18.1366 12.883C17.6286 12.629 17.068 12.4978 16.5 12.5C16.3894 12.5 16.2812 12.4674 16.1891 12.4062C16.0969 12.3451 16.0248 12.2581 15.9818 12.1562C15.9526 12.087 15.9376 12.0126 15.9376 11.9375C15.9376 11.8624 15.9526 11.788 15.9818 11.7188C16.0248 11.6169 16.0969 11.5299 16.1891 11.4688C16.2812 11.4076 16.3894 11.375 16.5 11.375C16.8156 11.375 17.1249 11.2864 17.3927 11.1194C17.6605 10.9525 17.8761 10.7137 18.0151 10.4303C18.154 10.1469 18.2107 9.83025 18.1786 9.51627C18.1466 9.20228 18.0272 8.90357 17.8339 8.65407C17.6406 8.40456 17.3812 8.21426 17.0852 8.10478C16.7892 7.9953 16.4684 7.97103 16.1593 8.03473C15.8502 8.09842 15.5651 8.24753 15.3365 8.46511C15.1079 8.6827 14.9448 8.96004 14.8659 9.26563C14.8475 9.33719 14.8151 9.40441 14.7706 9.46346C14.7262 9.5225 14.6706 9.57222 14.6069 9.60976C14.5432 9.6473 14.4728 9.67194 14.3996 9.68226C14.3264 9.69258 14.252 9.68839 14.1804 9.66992C14.1088 9.65146 14.0416 9.61908 13.9826 9.57463C13.9235 9.53018 13.8738 9.47454 13.8363 9.41088C13.7987 9.34723 13.7741 9.27679 13.7638 9.20361C13.7534 9.13043 13.7576 9.05594 13.7761 8.98438C13.8856 8.56061 14.0925 8.16826 14.3804 7.83853C14.6682 7.5088 15.029 7.2508 15.4341 7.08506C15.8392 6.91932 16.2774 6.85041 16.7138 6.88381C17.1502 6.91722 17.5728 7.05202 17.9479 7.27748C18.3231 7.50295 18.6404 7.81285 18.8747 8.18255C19.109 8.55224 19.2538 8.97152 19.2975 9.40701C19.3413 9.84251 19.2828 10.2822 19.1267 10.6911C18.9706 11.1 18.7212 11.4669 18.3984 11.7624C19.1633 12.0936 19.8282 12.6191 20.3271 13.2868C20.3714 13.346 20.4036 13.4135 20.4219 13.4852C20.4401 13.5569 20.444 13.6315 20.4333 13.7047C20.4227 13.7779 20.3977 13.8483 20.3598 13.9118C20.3219 13.9754 20.2719 14.0308 20.2125 14.075ZM16.4241 18.4063C16.4648 18.4703 16.4921 18.5419 16.5044 18.6167C16.5167 18.6916 16.5138 18.7682 16.4957 18.8418C16.4777 18.9155 16.4449 18.9848 16.3994 19.0455C16.3539 19.1062 16.2965 19.157 16.2309 19.195C16.1652 19.233 16.0925 19.2573 16.0172 19.2664C15.9419 19.2756 15.8655 19.2694 15.7926 19.2482C15.7198 19.2271 15.6519 19.1915 15.5932 19.1434C15.5345 19.0954 15.4861 19.036 15.4509 18.9688C15.0966 18.3688 14.5919 17.8715 13.9868 17.5261C13.3816 17.1807 12.6968 16.999 12 16.999C11.3032 16.999 10.6184 17.1807 10.0132 17.5261C9.40806 17.8715 8.90341 18.3688 8.54906 18.9688C8.5139 19.036 8.4655 19.0954 8.40678 19.1434C8.34806 19.1915 8.28022 19.2271 8.20736 19.2482C8.1345 19.2694 8.05812 19.2756 7.98281 19.2664C7.9075 19.2573 7.83482 19.233 7.76914 19.195C7.70346 19.157 7.64614 19.1062 7.60062 19.0455C7.55511 18.9848 7.52234 18.9155 7.50429 18.8418C7.48624 18.7682 7.48328 18.6916 7.4956 18.6167C7.50791 18.5419 7.53524 18.4703 7.57594 18.4063C8.12128 17.4693 8.95279 16.7319 9.94828 16.3025C9.38812 15.8736 8.97644 15.28 8.77111 14.605C8.56578 13.9301 8.57712 13.2078 8.80353 12.5396C9.02995 11.8714 9.46006 11.291 10.0334 10.8799C10.6068 10.4688 11.2945 10.2478 12 10.2478C12.7055 10.2478 13.3932 10.4688 13.9666 10.8799C14.5399 11.291 14.97 11.8714 15.1965 12.5396C15.4229 13.2078 15.4342 13.9301 15.2289 14.605C15.0236 15.28 14.6119 15.8736 14.0517 16.3025C15.0472 16.7319 15.8787 17.4693 16.4241 18.4063ZM12 15.875C12.445 15.875 12.88 15.743 13.25 15.4958C13.62 15.2486 13.9084 14.8972 14.0787 14.486C14.249 14.0749 14.2936 13.6225 14.2068 13.186C14.12 12.7496 13.9057 12.3487 13.591 12.034C13.2763 11.7193 12.8754 11.5051 12.439 11.4182C12.0025 11.3314 11.5501 11.376 11.139 11.5463C10.7278 11.7166 10.3764 12.005 10.1292 12.375C9.88196 12.745 9.75 13.18 9.75 13.625C9.75 14.2217 9.98705 14.794 10.409 15.216C10.831 15.6379 11.4033 15.875 12 15.875ZM8.0625 11.9375C8.0625 11.7883 8.00324 11.6452 7.89775 11.5398C7.79226 11.4343 7.64918 11.375 7.5 11.375C7.18439 11.375 6.87511 11.2864 6.60729 11.1194C6.33947 10.9525 6.12386 10.7137 5.98493 10.4303C5.846 10.1469 5.78933 9.83025 5.82136 9.51627C5.85338 9.20228 5.97282 8.90357 6.16611 8.65407C6.35939 8.40456 6.61877 8.21426 6.91479 8.10478C7.2108 7.9953 7.53159 7.97103 7.84071 8.03473C8.14983 8.09842 8.43489 8.24753 8.66351 8.46511C8.89214 8.6827 9.05516 8.96004 9.13406 9.26563C9.17136 9.41015 9.26454 9.53394 9.3931 9.60976C9.52167 9.68558 9.67509 9.70722 9.81961 9.66992C9.96413 9.63263 10.0879 9.53945 10.1637 9.41088C10.2396 9.28232 10.2612 9.1289 10.2239 8.98438C10.1144 8.56061 9.90748 8.16826 9.61965 7.83853C9.33181 7.5088 8.971 7.2508 8.5659 7.08506C8.16081 6.91932 7.72263 6.85041 7.28622 6.88381C6.84981 6.91722 6.42722 7.05202 6.05207 7.27748C5.67693 7.50295 5.35958 7.81285 5.12528 8.18255C4.89098 8.55224 4.7462 8.97152 4.70245 9.40701C4.65871 9.84251 4.71721 10.2822 4.8733 10.6911C5.02938 11.1 5.27875 11.4669 5.60156 11.7624C4.83746 12.0939 4.17331 12.6194 3.675 13.2868C3.5854 13.4061 3.54687 13.5562 3.5679 13.704C3.58894 13.8517 3.6678 13.985 3.78715 14.0747C3.9065 14.1643 4.05655 14.2028 4.2043 14.1817C4.35205 14.1607 4.4854 14.0819 4.575 13.9625C4.91404 13.5068 5.35534 13.137 5.86338 12.883C6.37142 12.629 6.932 12.4978 7.5 12.5C7.64918 12.5 7.79226 12.4407 7.89775 12.3353C8.00324 12.2298 8.0625 12.0867 8.0625 11.9375Z" fill="#898989"/>
</svg>
