<svg width="27" height="32" viewBox="0 12 27 20" fill="none" xmlns="http://www.w3.org/2000/svg">
<path  d="M9.63281 5.84375C9.63281 5.67281 9.70072 5.50887 9.82159 5.388C9.94247 5.26712 10.1064 5.19922 10.2773 5.19922H20.5898C20.7608 5.19922 20.9247 5.26712 21.0456 5.388C21.1665 5.50887 21.2344 5.67281 21.2344 5.84375C21.2344 6.01469 21.1665 6.17863 21.0456 6.2995C20.9247 6.42038 20.7608 6.48828 20.5898 6.48828H10.2773C10.1064 6.48828 9.94247 6.42038 9.82159 6.2995C9.70072 6.17863 9.63281 6.01469 9.63281 5.84375ZM20.5898 10.3555H10.2773C10.1064 10.3555 9.94247 10.4234 9.82159 10.5442C9.70072 10.6651 9.63281 10.8291 9.63281 11C9.63281 11.1709 9.70072 11.3349 9.82159 11.4558C9.94247 11.5766 10.1064 11.6445 10.2773 11.6445H20.5898C20.7608 11.6445 20.9247 11.5766 21.0456 11.4558C21.1665 11.3349 21.2344 11.1709 21.2344 11C21.2344 10.8291 21.1665 10.6651 21.0456 10.5442C20.9247 10.4234 20.7608 10.3555 20.5898 10.3555ZM20.5898 15.5117H10.2773C10.1064 15.5117 9.94247 15.5796 9.82159 15.7005C9.70072 15.8214 9.63281 15.9853 9.63281 16.1562C9.63281 16.3272 9.70072 16.4911 9.82159 16.612C9.94247 16.7329 10.1064 16.8008 10.2773 16.8008H20.5898C20.7608 16.8008 20.9247 16.7329 21.0456 16.612C21.1665 16.4911 21.2344 16.3272 21.2344 16.1562C21.2344 15.9853 21.1665 15.8214 21.0456 15.7005C20.9247 15.5796 20.7608 15.5117 20.5898 15.5117ZM6.73242 4.87695C6.54121 4.87695 6.35429 4.93365 6.1953 5.03989C6.03631 5.14612 5.91239 5.29711 5.83922 5.47377C5.76604 5.65043 5.7469 5.84482 5.7842 6.03236C5.82151 6.2199 5.91358 6.39217 6.04879 6.52738C6.184 6.66259 6.35627 6.75467 6.54381 6.79197C6.73135 6.82927 6.92574 6.81013 7.1024 6.73695C7.27906 6.66378 7.43005 6.53986 7.53628 6.38087C7.64252 6.22188 7.69922 6.03496 7.69922 5.84375C7.69922 5.58734 7.59736 5.34143 7.41605 5.16012C7.23474 4.97881 6.98883 4.87695 6.73242 4.87695ZM6.73242 10.0332C6.54121 10.0332 6.35429 10.0899 6.1953 10.1961C6.03631 10.3024 5.91239 10.4534 5.83922 10.63C5.76604 10.8067 5.7469 11.0011 5.7842 11.1886C5.82151 11.3762 5.91358 11.5484 6.04879 11.6836C6.184 11.8188 6.35627 11.9109 6.54381 11.9482C6.73135 11.9855 6.92574 11.9664 7.1024 11.8932C7.27906 11.82 7.43005 11.6961 7.53628 11.5371C7.64252 11.3781 7.69922 11.1912 7.69922 11C7.69922 10.7436 7.59736 10.4977 7.41605 10.3164C7.23474 10.1351 6.98883 10.0332 6.73242 10.0332ZM6.73242 15.1895C6.54121 15.1895 6.35429 15.2462 6.1953 15.3524C6.03631 15.4586 5.91239 15.6096 5.83922 15.7863C5.76604 15.9629 5.7469 16.1573 5.7842 16.3449C5.82151 16.5324 5.91358 16.7047 6.04879 16.8399C6.184 16.9751 6.35627 17.0672 6.54381 17.1045C6.73135 17.1418 6.92574 17.1226 7.1024 17.0495C7.27906 16.9763 7.43005 16.8524 7.53628 16.6934C7.64252 16.5344 7.69922 16.3475 7.69922 16.1562C7.69922 15.8998 7.59736 15.6539 7.41605 15.4726C7.23474 15.2913 6.98883 15.1895 6.73242 15.1895Z" fill="#898989"/>
</svg>
