<svg width="18" height="18" viewBox="0 0 18 18" fill="none" xmlns="http://www.w3.org/2000/svg">
<path d="M11.8125 15.75C11.8125 15.8992 11.7533 16.0423 11.6478 16.1477C11.5423 16.2532 11.3992 16.3125 11.25 16.3125H6.75004C6.60086 16.3125 6.45778 16.2532 6.35229 16.1477C6.2468 16.0423 6.18754 15.8992 6.18754 15.75C6.18754 15.6008 6.2468 15.4577 6.35229 15.3523C6.45778 15.2468 6.60086 15.1875 6.75004 15.1875H11.25C11.3992 15.1875 11.5423 15.2468 11.6478 15.3523C11.7533 15.4577 11.8125 15.6008 11.8125 15.75ZM15.5961 12.3708C15.2051 11.6986 14.625 9.79664 14.625 7.3125C14.625 5.82066 14.0324 4.38992 12.9775 3.33502C11.9226 2.28013 10.4919 1.6875 9.00004 1.6875C7.5082 1.6875 6.07746 2.28013 5.02256 3.33502C3.96767 4.38992 3.37504 5.82066 3.37504 7.3125C3.37504 9.79734 2.79426 11.6986 2.40402 12.3708C2.30437 12.5417 2.25154 12.7358 2.25086 12.9336C2.25018 13.1315 2.30168 13.326 2.40016 13.4975C2.49863 13.6691 2.64061 13.8117 2.81177 13.9109C2.98293 14.0101 3.17722 14.0624 3.37504 14.0625H14.625C14.8228 14.0622 15.017 14.0098 15.1881 13.9106C15.3591 13.8114 15.501 13.6688 15.5994 13.4972C15.6978 13.3257 15.7492 13.1312 15.7485 12.9335C15.7478 12.7357 15.695 12.5416 15.5954 12.3708H15.5961Z" fill="#333333"/>
</svg>
