<svg width="18" height="18" viewBox="0 0 18 18" fill="none" xmlns="http://www.w3.org/2000/svg">
<mask id="mask0_5576_1590" style="mask-type:alpha" maskUnits="userSpaceOnUse" x="0" y="0" width="18" height="18">
<rect width="18" height="18" fill="#D9D9D9"/>
</mask>
<g mask="url(#mask0_5576_1590)">
<path d="M14.6567 15.4327L9.94614 10.7221C9.57114 11.0317 9.13989 11.274 8.65239 11.449C8.16489 11.624 7.66057 11.7115 7.13942 11.7115C5.85754 11.7115 4.77266 11.2677 3.88476 10.38C2.99686 9.49232 2.55291 8.40771 2.55291 7.12618C2.55291 5.84463 2.99674 4.75962 3.88442 3.87116C4.77209 2.98271 5.85671 2.53848 7.13826 2.53848C8.41979 2.53848 9.50479 2.98243 10.3933 3.87033C11.2817 4.75823 11.7259 5.84312 11.7259 7.125C11.7259 7.66057 11.636 8.17211 11.4562 8.65961C11.2764 9.14711 11.0365 9.57115 10.7365 9.93172L15.4471 14.6423L14.6567 15.4327ZM7.13942 10.5865C8.10577 10.5865 8.92428 10.2512 9.59496 9.58053C10.2656 8.90986 10.601 8.09135 10.601 7.125C10.601 6.15865 10.2656 5.34013 9.59496 4.66946C8.92428 3.99878 8.10577 3.66344 7.13942 3.66344C6.17307 3.66344 5.35456 3.99878 4.68388 4.66946C4.01322 5.34013 3.67789 6.15865 3.67789 7.125C3.67789 8.09135 4.01322 8.90986 4.68388 9.58053C5.35456 10.2512 6.17307 10.5865 7.13942 10.5865Z" fill="#1C1B1F"/>
</g>
</svg>
