<svg width="24" height="24" viewBox="0 0 24 24" fill="none" xmlns="http://www.w3.org/2000/svg">
<rect width="24" height="24" rx="5" fill="white"/>
<path d="M19.7302 10.5382C19.7145 10.459 19.682 10.3841 19.6348 10.3186C19.5876 10.253 19.5268 10.1985 19.4567 10.1585L17.3592 8.96319L17.3508 6.59928C17.3505 6.51787 17.3326 6.43748 17.2983 6.36368C17.2639 6.28987 17.2139 6.2244 17.1518 6.17178C16.391 5.52821 15.5148 5.03502 14.5699 4.71842C14.4955 4.69324 14.4167 4.68392 14.3384 4.69106C14.2602 4.69821 14.1843 4.72166 14.1157 4.75991L12 5.94256L9.8822 4.7578C9.81354 4.71933 9.73758 4.69571 9.65921 4.68844C9.58085 4.68117 9.50184 4.69043 9.42728 4.71561C8.48296 5.03424 7.60776 5.52934 6.84821 6.1746C6.78618 6.22713 6.73626 6.29249 6.70191 6.36617C6.66756 6.43985 6.64959 6.5201 6.64923 6.60139L6.63868 8.96741L4.54126 10.1627C4.47109 10.2027 4.41034 10.2573 4.36315 10.3228C4.31595 10.3883 4.28341 10.4632 4.26775 10.5424C4.07579 11.507 4.07579 12.5 4.26775 13.4646C4.28341 13.5438 4.31595 13.6187 4.36315 13.6842C4.41034 13.7497 4.47109 13.8043 4.54126 13.8443L6.63868 15.0396L6.64712 17.4042C6.64738 17.4856 6.6653 17.566 6.69965 17.6398C6.73401 17.7136 6.78398 17.7791 6.84611 17.8317C7.60694 18.4753 8.48309 18.9685 9.42798 19.2851C9.50239 19.3103 9.58125 19.3196 9.65948 19.3124C9.73771 19.3053 9.81358 19.2818 9.8822 19.2436L12 18.0574L14.1178 19.2422C14.2016 19.2889 14.2961 19.3131 14.392 19.3125C14.4535 19.3125 14.5145 19.3025 14.5727 19.283C15.5168 18.9645 16.392 18.4699 17.1518 17.8254C17.2138 17.7728 17.2638 17.7075 17.2981 17.6338C17.3325 17.5601 17.3504 17.4799 17.3508 17.3986L17.3613 15.0326L19.4588 13.8373C19.5289 13.7973 19.5897 13.7427 19.6369 13.6772C19.6841 13.6117 19.7166 13.5368 19.7323 13.4576C19.9232 12.4937 19.9224 11.5017 19.7302 10.5382ZM12 14.8125C11.4438 14.8125 10.9 14.6475 10.4375 14.3385C9.97496 14.0295 9.61447 13.5902 9.4016 13.0763C9.18873 12.5624 9.13303 11.9969 9.24155 11.4513C9.35007 10.9057 9.61794 10.4046 10.0113 10.0112C10.4046 9.61791 10.9057 9.35005 11.4513 9.24153C11.9969 9.13301 12.5624 9.1887 13.0763 9.40158C13.5902 9.61445 14.0295 9.97493 14.3385 10.4374C14.6476 10.9 14.8125 11.4437 14.8125 12C14.8125 12.7459 14.5162 13.4613 13.9887 13.9887C13.4613 14.5162 12.7459 14.8125 12 14.8125Z" fill="#333333"/>
</svg>
